<?xml version="1.0" standalone="no"?>
<!DOCTYPE svg PUBLIC "-//W3C//DTD SVG 20010904//EN"
 "http://www.w3.org/TR/2001/REC-SVG-20010904/DTD/svg10.dtd">
<svg version="1.0" xmlns="http://www.w3.org/2000/svg"
 width="200.000000pt" height="200.000000pt" viewBox="0 0 200.000000 200.000000"
 preserveAspectRatio="xMidYMid meet">
<metadata>
Created by potrace 1.14, written by Peter Selinger 2001-2017
</metadata>
<g transform="translate(0.000000,200.000000) scale(0.100000,-0.100000)"
fill="#000000" stroke="none">
<path d="M215 1963 c-71 -37 -65 27 -65 -718 0 -521 3 -675 13 -688 6 -9 91
-61 187 -115 96 -55 216 -124 265 -154 50 -30 181 -108 293 -172 l203 -116
374 0 375 0 0 528 c0 491 -1 530 -17 544 -10 8 -81 51 -158 95 -129 73 -530
306 -820 475 -441 258 -584 338 -601 338 -10 -1 -32 -8 -49 -17z m160 -310
c59 -90 59 -89 -14 -117 -33 -13 -46 -14 -57 -5 -23 19 -16 37 21 50 19 7 35
18 35 24 0 6 -16 35 -35 65 -39 62 -42 73 -19 68 9 -2 40 -40 69 -85z m180
-316 c50 -29 91 -60 93 -70 5 -27 -12 -21 -108 35 -59 35 -90 59 -90 70 0 10
4 18 8 18 4 0 48 -24 97 -53z"/>
</g>
</svg>
